<svg xmlns="http://www.w3.org/2000/svg" viewBox="0 0 447.6 146.04"><defs><style>.a{fill:none;stroke:#000;stroke-miterlimit:10;}.b{font-size:12px;font-family:Europa-Regular;}</style></defs><path class="a" d="M63.76,60.92c3.31-3.18,6.59-6.13,9.64-9.3a6.29,6.29,0,0,0-.18-8.88,6.38,6.38,0,0,0-8.89.23c-8.76,8.7-17.53,17.4-26.19,26.2-5.25,5.35-6,14.13-2,20.72a17.59,17.59,0,0,0,18.94,7.77c5.72-1.37,9.11-5.7,12.75-9.3l-9.26-9.29a68.94,68.94,0,0,1-4.8,5.4,4.4,4.4,0,0,1-6.11-.19,4.31,4.31,0,0,1-.54-6.08c2.47-2.71,5.2-5.17,8-7.93L74.47,89.64l9-9ZM82,74.34c2.58-2.63,5.15-5.37,7.86-8,2.42-2.33,5.51-2.08,7.29.43,1.51,2.14,1.23,4.24-1,6.43Q85.38,84.11,74.48,95c-1.3,1.3-2.67,2.55-3.85,4a6.35,6.35,0,0,0,.41,8.7,6.19,6.19,0,0,0,8.69-.06c8.93-8.85,17.9-17.67,26.64-26.72,5.15-5.34,5.72-14,1.88-20.3a17.33,17.33,0,0,0-18.82-7.94C81.84,54.35,78.27,61,72.94,65.4Zm6.61,29.45c1.56,1.59,3.07,3.36,4.82,4.84a6.28,6.28,0,0,0,8.68-9c-1.47-1.68-3-3.25-4.52-4.81Z"/><path class="a" d="M63.76,60.92,83.51,80.64l-9,9L55.11,70.27c-2.82,2.76-5.55,5.22-8,7.93a4.31,4.31,0,0,0,.54,6.08,4.4,4.4,0,0,0,6.11.19,68.94,68.94,0,0,0,4.8-5.4l9.26,9.29c-3.64,3.6-7,7.93-12.75,9.3a17.59,17.59,0,0,1-18.94-7.77c-4-6.59-3.22-15.37,2-20.72,8.66-8.8,17.43-17.5,26.19-26.2a6.38,6.38,0,0,1,8.89-.23,6.29,6.29,0,0,1,.18,8.88C70.35,54.79,67.07,57.74,63.76,60.92Z"/><path class="a" d="M82,74.34,72.94,65.4c5.33-4.42,8.9-11.05,16.49-12.78a17.33,17.33,0,0,1,18.82,7.94c3.84,6.32,3.27,15-1.88,20.3-8.74,9-17.71,17.87-26.64,26.72a6.19,6.19,0,0,1-8.69.06,6.35,6.35,0,0,1-.41-8.7c1.18-1.41,2.55-2.66,3.85-4Q85.36,84.09,96.22,73.22c2.18-2.19,2.46-4.29,1-6.43-1.78-2.51-4.87-2.76-7.29-.43C87.17,69,84.6,71.71,82,74.34Z"/><path class="a" d="M88.63,103.79l9-9c1.47,1.56,3,3.13,4.52,4.81a6.28,6.28,0,0,1-8.68,9C91.7,107.15,90.19,105.38,88.63,103.79Z"/><path class="a" d="M137.39,46.7H124.31V41.5h31.62v5.2H142.86V87h-5.47Z"/><path class="a" d="M184.3,72.21c0,.58,0,1-.06,1.76H160c.32,4.55,4.68,8.78,10.34,8.78a11.63,11.63,0,0,0,9.05-4.43l3.44,3.58a16.74,16.74,0,0,1-12.49,5.92c-9.11,0-15.68-6.89-15.68-15.81s6-15.81,15-15.81C178.05,56.2,184.3,62.51,184.3,72.21ZM179,69.41a9.06,9.06,0,0,0-9.31-8.13,9.32,9.32,0,0,0-9.56,8.13Z"/><path class="a" d="M208.37,57l-2,5a7.68,7.68,0,0,0-3.45-.65c-4.75,0-6.9,5.07-6.9,5.07V87h-5.46V57h5.07V61.6s2.67-5.4,8.39-5.4A12.53,12.53,0,0,1,208.37,57Z"/><path class="a" d="M230.49,57l-2,5a7.63,7.63,0,0,0-3.45-.65c-4.75,0-6.9,5.07-6.9,5.07V87h-5.46V57h5.07V61.6s2.67-5.4,8.4-5.4A12.51,12.51,0,0,1,230.49,57Z"/><path class="a" d="M259,67.26V87h-5V82.68a12.69,12.69,0,0,1-10.21,5.14c-5.4,0-11.19-3.77-11.19-10.28,0-5.85,5.14-10,11.9-10A16.83,16.83,0,0,1,253.53,70V68.37c0-6.25-5.21-7.09-7.62-7.09a20.77,20.77,0,0,0-9,2.54l-2.28-4.56a22.36,22.36,0,0,1,11.25-3.06C254.76,56.2,259,61.67,259,67.26Zm-5.46,11.19V74.23a14.43,14.43,0,0,0-7.88-2.15c-4.68,0-7.61,2.34-7.61,5.46,0,3.91,3.52,5.47,6.9,5.47C250.27,83,253.53,78.45,253.53,78.45Z"/><path class="a" d="M269.14,78a11.6,11.6,0,0,0,9.11,4.88c3.06,0,6.51-1.3,6.51-3.71,0-2.6-2.22-3.9-6.83-4.81-6.45-1.31-11-3.84-11-9.5,0-4.36,4.36-8.66,11.06-8.66a15.64,15.64,0,0,1,11.13,4.56l-3.58,3.71A11.06,11.06,0,0,0,278,61.15c-3.84,0-5.73,1.88-5.73,3.84,0,2.27,2.35,3.51,7.29,4.55,5.73,1.24,10.61,3.38,10.61,9.5,0,5.79-6.12,8.78-11.91,8.78a16.46,16.46,0,0,1-12.88-6.31Z"/><path class="a" d="M301.93,57v4.36a11.85,11.85,0,0,1,10.15-5.14c8.14,0,14.58,7,14.58,15.81s-6.44,15.81-14.58,15.81a12.07,12.07,0,0,1-9.69-4.49V102h-5.47V57Zm.46,20.63a10.68,10.68,0,0,0,8.85,5.14c6.11,0,9.95-4.82,9.95-10.74s-3.84-10.73-9.95-10.73a10.68,10.68,0,0,0-8.85,5.14Z"/><path class="a" d="M361.79,72c0,8.85-6.64,15.81-15.48,15.81s-15.49-7-15.49-15.81,6.64-15.81,15.49-15.81S361.79,63.16,361.79,72Zm-5.46,0c0-5.92-4-10.73-10-10.73s-10,4.81-10,10.73,4,10.74,10,10.74S356.33,77.93,356.33,72Z"/><path class="a" d="M385.86,57l-2,5a7.63,7.63,0,0,0-3.45-.65c-4.75,0-6.9,5.07-6.9,5.07V87H368V57h5.07V61.6s2.67-5.4,8.39-5.4A12.53,12.53,0,0,1,385.86,57Z"/><path class="a" d="M416.7,72.21c0,.58,0,1-.06,1.76H392.37c.33,4.55,4.69,8.78,10.35,8.78a11.59,11.59,0,0,0,9-4.43l3.45,3.58a16.77,16.77,0,0,1-12.49,5.92C393.61,87.82,387,80.93,387,72s6-15.81,15-15.81C410.46,56.2,416.7,62.51,416.7,72.21Zm-5.33-2.8a9.05,9.05,0,0,0-9.31-8.13,9.32,9.32,0,0,0-9.56,8.13Z"/><path class="a" d="M426.27,80.41a3.71,3.71,0,1,1-3.71,3.71A3.75,3.75,0,0,1,426.27,80.41Z"/><text class="b" transform="translate(134.93 109.39)">SPECIAL EDITION 001/100</text><rect class="a" x="10.82" y="23.92" width="430.7" height="103.6" rx="20.72"/></svg>